<svg xmlns="http://www.w3.org/2000/svg" viewBox="0 0 900 480"><rect width="900" height="480" rx="34" fill="#f5f8fb"/><g transform="translate(55 60)"><rect width="175" height="320" rx="22" fill="#dff5f7"/><circle cx="88" cy="105" r="50" fill="#0b7285"/><path d="M58 112h60v75H58z" fill="#fff"/><path d="M50 112l38-35 38 35" fill="none" stroke="#fff" stroke-width="10"/><text x="88" y="245" text-anchor="middle" font-family="Arial" font-size="18" font-weight="800" fill="#102a43">HOME</text></g><g transform="translate(260 60)"><rect width="175" height="320" rx="22" fill="#fff1d1"/><circle cx="88" cy="105" r="50" fill="#d49b24"/><path d="M88 66v86M60 120h56" stroke="#fff" stroke-width="11" stroke-linecap="round"/><text x="88" y="245" text-anchor="middle" font-family="Arial" font-size="18" font-weight="800" fill="#102a43">LIFE</text></g><g transform="translate(465 60)"><rect width="175" height="320" rx="22" fill="#eaf0f8"/><circle cx="88" cy="105" r="50" fill="#1f4e79"/><path d="M53 130c20-48 52-72 77-65 20 6 28 33 21 63" fill="none" stroke="#fff" stroke-width="11" stroke-linecap="round"/><circle cx="82" cy="108" r="17" fill="#fff"/><text x="88" y="245" text-anchor="middle" font-family="Arial" font-size="18" font-weight="800" fill="#102a43">PENSION</text></g><g transform="translate(670 60)"><rect width="175" height="320" rx="22" fill="#eef7f8"/><circle cx="88" cy="105" r="50" fill="#102a43"/><path d="M45 125h86l-13-39H59z" fill="#fff"/><circle cx="66" cy="132" r="11" fill="#d49b24"/><circle cx="110" cy="132" r="11" fill="#d49b24"/><text x="88" y="245" text-anchor="middle" font-family="Arial" font-size="18" font-weight="800" fill="#102a43">MOTOR</text></g></svg>
