<svg xmlns="http://www.w3.org/2000/svg" viewBox="0 0 160 160"><rect width="160" height="160" rx="22" fill="#eef7fb"/><rect x="12" y="12" width="136" height="136" rx="20" fill="#d9f0fb"/><path d="M24 114c10-8 19-8 29 0s19 8 29 0 19-8 29 0 19 8 29 0" fill="none" stroke="#1b84b8" stroke-width="10" stroke-linecap="round"/><path d="M24 128c10-8 19-8 29 0s19 8 29 0 19-8 29 0 19 8 29 0" fill="none" stroke="#4bb2de" stroke-width="10" stroke-linecap="round"/><path d="M49 93V72l29-22 29 22v21" fill="#fff" stroke="#1a5d8a" stroke-width="4"/><path d="M42 74l36-28 39 28" fill="none" stroke="#1a5d8a" stroke-width="5" stroke-linecap="round"/><rect x="68" y="78" width="18" height="15" fill="#ffd37d"/><text x="80" y="35" font-size="12" text-anchor="middle" fill="#0f5078" font-family="Arial" font-weight="700">FLOOD RISK</text><circle cx="116" cy="44" r="12" fill="#ffd37d"/></svg>