<svg xmlns="http://www.w3.org/2000/svg" viewBox="0 0 900 560" role="img" aria-labelledby="t d"><title id="t">Elevator pitch challenge</title><desc id="d">Two colleagues in a modern lift, one asking what an actuary does.</desc><rect width="900" height="560" rx="32" fill="#eaf0f5"/><rect x="120" y="55" width="660" height="450" rx="22" fill="#cfd9e2"/><path d="M450 55v450" stroke="#b3c0cb" stroke-width="8"/><rect x="368" y="90" width="164" height="56" rx="12" fill="#102a43"/><text x="418" y="128" fill="#8de3ea" font-family="Arial" font-size="26" font-weight="700">10:00</text><circle cx="322" cy="248" r="48" fill="#efc7aa"/><path d="M276 246c12-65 92-67 98-6-32-18-66-14-98 6z" fill="#17324d"/><rect x="257" y="295" width="136" height="155" rx="36" fill="#0b7285"/><circle cx="585" cy="250" r="48" fill="#e9bb98"/><path d="M542 248c8-60 85-70 96-8-28-16-68-16-96 8z" fill="#3e2b26"/><rect x="520" y="297" width="136" height="155" rx="36" fill="#1f4e79"/><path d="M520 195q-90-90-170-5" fill="#fff" stroke="#d9e4ec" stroke-width="4"/><text x="375" y="165" fill="#102a43" font-family="Arial" font-size="20" font-weight="700">What exactly</text><text x="390" y="191" fill="#102a43" font-family="Arial" font-size="20" font-weight="700">does an actuary do?</text><circle cx="711" cy="280" r="45" fill="#fff"/><text x="681" y="293" fill="#d49b24" font-family="Arial" font-size="36" font-weight="700">60</text></svg>
