<svg xmlns="http://www.w3.org/2000/svg" viewBox="0 0 900 520" role="img" aria-labelledby="t d">
<title id="t">Historic mortality and population table</title><desc id="d">Stylised vintage museum illustration for an actuarial history learning game.</desc>
<defs><linearGradient id="paper" x1="0" y1="0" x2="1" y2="1"><stop stop-color="#fbf6ea"/><stop offset="1" stop-color="#eadfc7"/></linearGradient><linearGradient id="ink" x1="0" y1="0" x2="1" y2="1"><stop stop-color="#18364a"/><stop offset="1" stop-color="#284e67"/></linearGradient><filter id="shadow"><feDropShadow dx="0" dy="8" stdDeviation="8" flood-opacity=".18"/></filter></defs>
<rect width="100%" height="100%" rx="28" fill="url(#paper)"/>

<rect x="130" y="70" width="640" height="390" rx="12" fill="#fffaf0" stroke="#284e67" stroke-width="7"/>
<text x="450" y="125" text-anchor="middle" font-family="Georgia,serif" font-size="28" fill="#18364a">TABLE OF LIVES &amp; POPULATION</text>
<g stroke="#b69b62" stroke-width="4"><path d="M180 160h540M180 205h540M180 250h540M180 295h540M180 340h540M180 385h540"/><path d="M270 145v260M380 145v260M500 145v260M610 145v260"/></g>
<g fill="#6f3141"><circle cx="220" cy="183" r="8"/><circle cx="320" cy="228" r="8"/><circle cx="430" cy="273" r="8"/><circle cx="555" cy="318" r="8"/><circle cx="670" cy="363" r="8"/></g>
</svg>